<svg xmlns="http://www.w3.org/2000/svg" viewBox="0 0 204 204"><defs><style>.cls-1{fill:#666;}.cls-2{fill:#333;}</style></defs><title>Asset 2</title><g id="Layer_2" data-name="Layer 2"><g id="Layer_1-2" data-name="Layer 1"><path d="M180,62H148V29A24,24,0,0,0,124,5H87A24,24,0,0,0,63,29V62H29A24,24,0,0,0,5,86v37a24,24,0,0,0,24,24H63v33a24,24,0,0,0,24,24h37a24,24,0,0,0,24-24V147h32a24,24,0,0,0,24-24V86A24,24,0,0,0,180,62Z"/><path class="cls-1" d="M199,99.5V81a24,24,0,0,0-24-24H143V24A24,24,0,0,0,119,0H82A24,24,0,0,0,58,24V57H24A24,24,0,0,0,0,81V99.5"/><path class="cls-2" d="M0,99.5V118a24,24,0,0,0,24,24H58v33a24,24,0,0,0,24,24h37a24,24,0,0,0,24-24V142h32a24,24,0,0,0,24-24V99.5"/><path class="cls-2" d="M95.38,14.78,81.61,38.5A4.77,4.77,0,0,0,83.35,45a4.72,4.72,0,0,0,2.38.64h27.54a4.77,4.77,0,0,0,4.12-7.16L103.62,14.78A4.76,4.76,0,0,0,97.12,13,4.84,4.84,0,0,0,95.38,14.78Z"/><path d="M103.62,183.75,117.39,160a4.77,4.77,0,0,0-1.74-6.52,4.72,4.72,0,0,0-2.38-.64H85.73A4.77,4.77,0,0,0,81.61,160l13.77,23.72a4.76,4.76,0,0,0,8.24,0Z"/><path class="cls-2" d="M186.37,99.5a4.73,4.73,0,0,0-.65-2.4A4.81,4.81,0,0,0,184,95.38L160.26,81.61a4.76,4.76,0,0,0-7.15,4.12V99.5"/><path d="M153.11,99.5v13.77a4.76,4.76,0,0,0,7.15,4.12L184,103.62a4.77,4.77,0,0,0,2.37-4.12"/><path class="cls-2" d="M45.88,99.5V85.73a4.76,4.76,0,0,0-7.15-4.12L15,95.38a4.77,4.77,0,0,0-2.37,4.12"/><path d="M12.63,99.5a4.73,4.73,0,0,0,.65,2.4A4.81,4.81,0,0,0,15,103.62l23.73,13.77a4.76,4.76,0,0,0,7.15-4.12V99.5"/></g></g></svg>